<svg width="167" height="149" viewBox="0 0 167 149" fill="none" xmlns="http://www.w3.org/2000/svg">
<path d="M102.962 148.516C86.2178 145.904 69.2131 144.395 52.7879 140.448C25.3255 133.832 10.3776 113.488 1.8028 88.2112C0.34056 83.4164 -0.0875426 78.3649 0.546729 73.3917C1.181 68.4186 2.86322 63.6372 5.48189 59.3647C14.7519 43.0551 24.6012 26.9197 38.767 14.3247C44.0533 9.70411 50.3263 6.35851 57.1043 4.54476C66.7921 2.55724 76.6079 1.25776 86.4785 0.656C88.7757 0.36414 91.1092 0.664023 93.2585 1.52729C95.4077 2.39056 97.3017 3.78864 98.7613 5.58946C102.238 9.62333 105.975 13.425 109.19 17.6621C118.436 30.4855 132.311 39.1897 147.863 41.9234C163.014 44.5352 166.548 54.8375 166.751 65.9525C167.041 82.3491 161.566 97.2947 154.063 111.515C151.332 116.504 148.344 121.347 145.111 126.025C135.175 140.855 121.676 149.126 102.962 148.516ZM95.372 136.705C113.883 136.328 126.687 133.6 134.972 121.73C144.721 108.611 151.35 93.434 154.352 77.3576C156.815 62.2378 150.558 50.1652 135.957 45.4348C124.535 41.6517 114.592 34.3614 107.539 24.598C94.358 7.9692 77.1795 4.42864 58.2919 14.1215C47.982 19.2967 38.7932 26.4596 31.2521 35.1994C23.7109 43.9393 17.9659 54.0843 14.3463 65.0528C7.77041 84.0323 11.913 100.516 26.3973 114.562C32.883 121.198 41.1068 125.866 50.1228 128.028C66.7219 131.713 83.4658 134.441 95.4299 136.705H95.372Z" fill="white"/>
</svg>
