<svg width="323" height="300" viewBox="0 0 323 300" fill="none" xmlns="http://www.w3.org/2000/svg">
<path d="M151.044 0.547607C156.35 0.547607 161.655 0.547607 166.989 0.547607C187.282 0.924735 206.415 4.92811 223.867 15.4297C240.536 25.4381 257.437 35.2144 273.294 46.4122C287.133 55.8267 298.67 68.2443 307.048 82.7401C315.425 97.2359 320.426 113.436 321.678 130.135C325.581 170.703 315.903 211.418 294.167 245.884C282.136 265.524 264.539 278.027 243.145 285.337C200.146 300.403 153.815 303.245 109.299 293.547C64.8869 283.887 35.2303 256.705 18.1264 215.366C4.37741 182.944 -1.64693 147.766 0.529566 112.613C1.52631 96.2761 7.12464 80.5558 16.6769 67.2703C37.1611 37.4555 67.1635 15.4931 101.762 4.98611C108.528 2.87627 115.51 1.53339 122.576 0.982737C132.085 0.286501 141.681 0.808685 151.218 0.808685L151.044 0.547607ZM159.944 5.36325C115.213 1.82405 80.0195 12.9928 49.4933 38.6376C19.4309 63.9051 0.935468 94.3945 4.47222 135.53C6.21101 162.078 12.0796 188.192 21.8661 212.929C38.8831 253.804 68.5976 279.912 112.024 289.196C155.451 298.479 198.646 294.853 240.855 280.957C252.056 277.52 262.471 271.908 271.504 264.442C280.538 256.975 288.012 247.801 293.5 237.442C309.273 209.14 317.64 177.306 317.822 144.901C317.822 107.652 303.762 76.5244 274.338 53.2295C264.655 45.5709 253.813 39.3628 243.464 32.5455C216.764 14.7624 188.093 2.75235 160.031 5.30522L159.944 5.36325Z" fill="white"/>
</svg>
