<svg width="428" height="416" viewBox="0 0 428 416" fill="none" xmlns="http://www.w3.org/2000/svg">
<path d="M200.295 0.802979C218.582 2.50021 236.893 3.71936 255.085 6.08591C263.704 7.61319 272.18 9.86012 280.423 12.8031C302.44 19.5681 324.575 26.0702 346.376 33.5762C365.737 40.4609 383.096 52.0228 396.911 67.2339C405.67 76.3282 411.849 87.5905 414.815 99.8637C421.03 126.302 426.767 152.812 427.748 180.111C428.253 193.542 427.145 206.985 424.449 220.152C419.907 242.455 415.986 264.877 411.731 287.228C410.704 292.678 409.341 298.057 408.217 303.507C403.437 327.412 389.859 345.245 371.237 360.161C337.771 386.934 300.647 405.317 258.192 412.751C222.932 419.011 186.643 415.828 153.012 403.524C133.888 396.783 115.314 389.373 98.0312 378.855C78.1387 367.004 61.1691 350.827 48.3813 331.523C29.0186 302.121 12.9069 271.116 3.58408 236.981C1.54316 229.67 0.371727 222.143 0.0940248 214.558C-1.55539 153.888 18.4528 101.131 59.1145 56.2378C68.7618 45.615 80.3372 36.9193 93.2264 30.612C104.462 25.0423 115.482 19.0183 126.693 13.2812C140.775 6.10369 156.353 2.35249 172.159 2.33287C181.506 2.33287 190.853 2.33287 200.176 2.33287L200.295 0.802979ZM207.156 402.879C217.913 401.946 228.67 401.42 239.427 400.034C285.3 394.058 326.822 377.85 362.894 348.185C375.073 338.541 384.109 325.494 388.855 310.702C392.201 300.121 395.556 289.547 398.919 278.981C415.219 227.763 417.807 173.167 406.425 120.637C403.179 105.124 395.651 90.8301 384.695 79.3774C357.396 50.1899 323.045 33.9587 285.037 24.0622C268.528 20.2181 251.743 17.6685 234.837 16.4366C209.802 13.9455 184.541 14.9998 159.801 19.5681C126.794 25.4797 96.1927 40.7845 71.6645 63.6482C51.7519 82.1982 36.2617 103.593 27.0345 129.673C18.4242 154.236 13.6588 179.982 12.9069 206C11.9985 233.443 17.4965 259.403 31.5524 283.284C42.0074 301.165 54.0053 318.098 67.4094 333.89C81.0108 350.322 97.0258 364.596 114.908 376.225C142.319 394.092 174.439 403.373 207.156 402.879V402.879Z" fill="white"/>
</svg>
