<svg width="467" height="455" viewBox="0 0 467 455" fill="none" xmlns="http://www.w3.org/2000/svg">
<path d="M466.915 212.004C465.481 231.773 464.166 251.542 462.564 271.311C462.172 275.678 461.282 279.984 459.911 284.148C453.385 304.419 446.955 324.786 439.855 344.794C432.618 365.341 418.966 383.016 400.914 395.209C377.01 411.942 352.173 427.241 325.4 439.146C285.527 456.859 244.746 458.15 203.08 446.317C181.757 440.293 160.41 434.365 138.896 429.01C123.047 425.09 110.354 416.245 98.2581 405.99C68.4251 380.771 47.8671 348.786 31.0622 314.125C23.8908 299.423 17.819 284.268 11.3887 269.256C-0.08186 242.774 -2.22262 213.183 5.3169 185.327C11.3887 161.422 22.0501 139.262 31.2773 116.601C35.1737 107.158 39.5483 97.9074 43.8511 88.6563C52.3524 69.5662 66.6893 53.6642 84.7998 43.2375C110.856 28.2015 137.103 13.6675 166.075 4.99016C179.801 0.821874 194.256 -0.384009 208.482 1.45229C214.829 2.18014 221.221 2.43581 227.606 2.21722C257.224 1.5718 286.746 2.91046 315.288 11.038C346.149 19.8349 376.675 30.0183 404.261 47.0862C421.174 57.1697 434.398 72.4218 441.983 90.5926C458.453 129.557 465.648 169.932 466.915 212.004ZM462.54 220.323C461.297 202.108 460.485 182.554 458.453 163.119C455.895 139.215 447.648 116.601 439.329 94.1544C432.923 77.0732 421.037 62.5971 405.528 52.9906C377.249 34.7275 345.766 23.8748 313.734 14.8867C285.742 7.02205 256.77 5.73122 227.678 6.68741C222.728 6.99076 217.761 6.86278 212.833 6.30492C194.866 3.54744 176.495 5.31388 159.382 11.4444C134.282 20.4803 110.88 32.9586 87.8595 46.1778C72.5367 55.0464 60.1063 66.425 52.0026 82.2021C35.8282 113.265 22.2365 145.605 11.3648 178.896C1.56388 209.112 2.40054 239.351 15.5481 268.682C24.5123 288.642 32.9745 308.89 43.1101 328.228C56.6328 354.82 74.7158 378.834 96.5369 399.177C112.935 414.165 131.175 424.779 153.358 428.054C155.085 428.312 156.793 428.68 158.474 429.154C177 434.365 195.383 440.198 214.052 444.739C249.622 453.393 284.642 451.72 318.754 437.568C347.922 424.919 375.511 408.906 400.962 389.854C417.25 378.265 429.584 361.951 436.293 343.121C441.457 328.778 446.166 314.435 450.636 299.925C454.327 289.194 457.165 278.187 459.122 267.009C461.178 252.068 461.417 236.865 462.54 220.323V220.323Z" fill="white"/>
</svg>
