<svg width="277" height="257" viewBox="0 0 277 257" fill="none" xmlns="http://www.w3.org/2000/svg">
<path d="M276.486 136.051C276.66 154.498 275.325 167.404 268.798 179.296C260.937 193.536 253.945 208.299 243.009 220.655C228.765 236.781 211.098 244.061 189.748 245.424C173.894 246.534 158.129 248.666 142.549 251.805C126.768 254.908 110.784 258.94 95.3512 253.458C69.8229 244.38 46.3544 231.415 28.6296 209.952C18.2733 197.481 14.1249 182.631 11.6301 167.085C8.32305 146.086 5.45111 125.059 1.73791 104.147C-1.54015 85.5848 3.2754 70.2999 18.6794 59.2495C40.5524 43.5585 62.3965 27.8386 84.8788 13.1047C107.854 -1.97717 133.063 -1.80314 158.563 5.59279C189.152 14.8673 217.7 29.8671 242.69 49.7944C249.998 55.1584 256.173 61.9152 260.858 69.6756C265.543 77.436 268.645 86.0465 269.987 95.011C272.279 110.47 274.832 125.842 276.486 136.051ZM260.414 128.742C260.879 110.847 260.037 95.33 254.09 80.5382C250.793 71.8541 244.324 64.7438 235.989 60.6417C222.47 53.7098 209.474 45.7048 196.072 38.5119C183.598 31.8411 171.182 24.9382 158.214 19.3695C136.602 10.1173 115.019 12.0896 94.7419 23.401C78.9898 32.1021 63.905 42.1663 48.7911 51.9986C43.5249 55.6088 38.6103 59.7068 34.1124 64.2381C21.8414 75.8396 17.548 90.8345 16.7068 107.396C14.415 146.608 22.0445 182.37 52.4463 209.894C78.8738 233.822 109.305 246.932 145.798 241.015C158.388 238.956 170.892 236.433 183.511 234.229C209.619 229.646 228.62 214.999 242.777 193.13C255.445 174.163 261.633 151.605 260.414 128.829V128.742Z" fill="white"/>
</svg>
