<svg width="566" height="579" viewBox="0 0 566 579" fill="none" xmlns="http://www.w3.org/2000/svg">
<path d="M304.076 578.549C288.06 577.617 272.02 577.162 256.052 575.633C239.381 574.206 223.273 568.91 209.008 560.166C184.84 545.082 158.617 534.564 132.178 524.309C121.109 519.799 110.303 514.667 99.8114 508.939C92.1667 504.563 85.625 498.496 80.6877 491.201C54.6795 455.847 35.6276 416.81 20.735 375.79C15.5238 361.447 13.3724 345.79 10.5038 330.61C4.84937 302.563 1.38076 274.118 0.12921 245.534C-0.628932 232.068 1.95798 218.624 7.65915 206.402C20.9501 179.127 33.763 151.613 47.7711 124.696C53.2015 115.045 59.8012 106.101 67.4207 98.0662C77.3172 86.9983 88.1938 76.7672 98.7118 66.2491C108.832 56.0776 120.777 47.9032 133.923 42.1533C158.473 31.3245 182.665 19.5395 207.645 9.78645C219.973 5.35922 232.835 2.59384 245.893 1.56326C294.924 -3.41987 344.432 3.55202 390.181 21.8822C415.687 31.8743 440.763 43.1334 465.528 54.8705C485.393 64.265 502.509 77.556 511.664 98.4726C518.836 114.799 525.098 131.461 531.792 147.955C538.246 163.899 544.533 179.916 551.274 195.764C556.129 207.355 559.293 219.584 560.669 232.075C565.689 274.554 567.003 317.08 561.792 359.654C560.119 373.256 558.015 386.81 556.175 400.412C554.068 416.439 547.933 431.671 538.342 444.683C525.553 462.086 511.855 478.795 498.493 495.743C490.078 506.381 478.915 513.074 466.437 517.879C458.811 520.795 451.162 523.736 443.655 526.939C430.478 532.521 418.351 540.315 407.799 549.983C387.241 568.987 362.571 577.115 335.009 577.521C324.778 577.664 314.57 577.521 304.339 577.521L304.076 578.549ZM301.064 572.86C318.061 572.047 332.14 571.688 346.053 570.637C364.299 569.655 381.776 562.966 396.014 551.513C400.292 547.975 404.5 544.341 409.089 541.234C417.574 535.104 426.436 529.515 435.623 524.501C447.05 518.74 459.528 514.939 470.978 509.297C477.597 506.298 483.665 502.209 488.931 497.202C506.762 478.675 522.772 458.479 536.74 436.89C543.017 427.369 547.474 416.768 549.888 405.623C555.801 379.089 559.044 352.029 559.569 324.849C560.214 300.371 559.139 275.797 557.776 251.343C556.86 230.593 552.262 210.172 544.198 191.031C531.624 161.82 520.796 131.867 509.035 102.321C503.49 87.6871 493.118 75.3834 479.632 67.4444C467.269 60.293 454.543 53.7901 441.504 47.9621C416.213 36.5835 390.492 25.8025 363.24 20.2328C324.252 12.2725 284.857 7.39597 244.912 9.42786C231.741 10.0972 218.617 11.5554 206.33 16.5992C187.207 24.5595 168.083 32.5914 149.222 41.221C135.214 47.6274 120.537 53.1733 109.134 64.1216C93.8831 79.0142 78.6559 93.9307 64.2175 109.54C57.806 116.745 52.4021 124.787 48.1536 133.445C36.4403 156.609 25.7549 180.322 14.209 203.581C7.06641 218.362 4.04383 234.796 5.45989 251.151C7.44398 283.016 12.9421 314.331 18.8943 345.598C20.4438 354.517 22.8453 363.266 26.0657 371.726C42.799 413.368 66.2733 451.4 91.2775 488.5C96.1282 495.515 102.652 501.209 110.258 505.066C120.298 510.349 130.481 515.489 140.903 520.03C164.21 530.142 187.446 540.278 209.151 553.688C222.853 562.246 238.3 567.621 254.355 569.417C270.729 571.378 287.343 571.951 301.041 572.884L301.064 572.86Z" fill="white"/>
</svg>
