<svg width="501" height="497" viewBox="0 0 501 497" fill="none" xmlns="http://www.w3.org/2000/svg">
<path d="M50.7125 364.421C49.6104 363.111 48.619 361.712 47.7484 360.238C37.1347 339.106 26.9274 317.783 15.9313 296.867C4.31364 274.803 -2.21229 251.902 1.99492 226.898C4.79176 210.165 7.6125 193.432 11.5568 177.105C18.1311 150.141 27.9226 124.065 40.7204 99.4387C47.8918 85.6696 55.9954 72.3786 66.8959 61.3108C73.2868 54.925 80.403 49.309 88.0993 44.5776C102.705 35.4699 117.908 27.3184 132.729 18.5454C152.737 6.59313 173.869 -0.195783 197.535 0.425738C224.69 1.14288 251.894 -0.267501 279.026 0.832112C297.949 1.97426 316.787 4.24126 335.44 7.62105C343.95 9.00752 352.174 12.6171 360.277 15.7725C374.979 21.4857 389.632 27.3423 404.094 33.6054C414.517 38.1472 424.557 43.5497 434.836 48.3545C446.023 53.5657 453.171 62.6973 458.74 73.0719C476.717 105.869 489.649 140.459 493.976 177.822C496.366 197.543 498.47 217.265 499.88 237.058C502.127 268.851 499.259 299.998 487.115 329.927C480.087 347.234 474.35 365.067 467.035 382.23C457.807 404.88 441.485 423.928 420.517 436.518C395.991 451.219 372.349 467.594 346.006 478.972C332.675 484.797 318.943 489.654 304.914 493.506C284.093 499.076 262.938 497.164 242.643 490.877C210.587 481.004 178.387 471.203 147.192 458.988C110.186 444.964 79.309 418.344 59.9875 383.808C56.4258 377.521 53.6289 370.756 50.4257 364.23C52.5532 367.362 54.9198 370.326 56.7126 373.601C75.3343 407.641 101.127 434.271 136.841 450.382C145.655 454.219 154.701 457.501 163.925 460.207C186.228 467.116 208.674 473.618 231.025 480.359C251.296 486.454 271.806 490.638 293.177 488.08C312.908 485.419 331.995 479.216 349.52 469.769C371.273 458.486 392.094 445.482 413.561 433.625C439.378 419.282 455.824 397.338 466.509 370.565C472.486 355.648 477.649 340.445 483.529 325.529C491.801 303.934 496.117 281.026 496.271 257.902C496.797 230.675 493.737 203.758 490.055 176.794C485.275 142.132 473.537 110.148 457.736 79.2154C454.359 72.0777 449.583 65.6912 443.69 60.4351C437.798 55.1789 430.909 51.1602 423.433 48.6175C414.063 45.3903 404.764 41.9242 395.274 39.0556C379.09 34.0834 363.074 28.8244 347.464 22.3224C322.747 12.1629 296.404 7.35809 269.846 5.58914C244.531 3.89192 219.073 4.20268 193.686 4.05925C186.685 4.18726 179.713 4.98776 172.865 6.44971C158.522 9.12703 146.092 16.394 134.044 24.1152C120.012 33.0795 106.076 42.1871 92.4739 51.749C85.5678 56.6341 79.0684 62.0702 73.0394 68.0041C68.3371 72.8079 64.0358 77.9886 60.1787 83.4943C45.4057 103.502 31.8039 124.132 23.7003 148.037C16.5046 169.343 10.6995 191.094 6.32165 213.153C0.512828 242.245 3.33361 269.855 17.9393 296.245C28.553 315.369 37.9475 335.21 47.7005 354.812C48.9828 357.921 49.9906 361.136 50.7125 364.421Z" fill="white"/>
</svg>
