<svg width="524" height="530" viewBox="0 0 524 530" fill="none" xmlns="http://www.w3.org/2000/svg">
<path d="M523.672 271.068C522.668 301.14 520.039 330.83 510.023 359.204C500.293 386.814 488.198 413.348 470.341 436.871C457.313 454.058 442.086 468.855 422.938 479.014C397.671 492.425 372.452 506.003 346.611 518.242C324.284 528.808 300.14 531.198 275.566 529.31C256.341 528.012 237.283 524.891 218.649 519.987C187.884 511.62 160.131 497.062 133.214 480.281C93.9628 455.803 65.8031 421.404 42.6395 382.272C21.8029 347.626 8.18349 309.126 2.59928 269.084C-0.778847 245.575 0.941345 221.614 7.64312 198.828C19.1173 160.581 36.8307 125.059 56.9106 90.7317C65.0142 76.867 76.9426 66.4685 90.377 57.8389C119.508 38.8092 150.909 23.5026 183.844 12.2767C219.701 0.324441 256.419 -2.99833 293.566 4.89019C322.395 11.0098 351.224 17.3445 379.623 25.3765C404.66 32.5029 428.545 43.1856 450.548 57.0979C464.325 65.5437 475.225 77.9603 481.815 92.7158C498.333 129.29 512.891 166.509 517.672 206.645C520.301 227.992 521.712 249.578 523.672 271.068ZM60.9505 383.826L60.7353 383.563C63.8668 390.089 66.6637 396.854 70.2972 403.141C89.5715 437.692 120.406 464.345 157.382 478.417C188.577 490.632 220.777 500.433 252.833 510.306C273.128 516.592 294.283 518.505 315.104 512.935C329.176 509.151 342.957 504.358 356.34 498.592C382.635 487.19 406.324 470.839 430.85 456.138C451.819 443.548 468.141 424.5 477.369 401.85C484.684 384.687 490.421 366.854 497.449 349.547C509.592 319.618 512.461 288.471 510.214 256.678C508.803 236.885 506.604 217.163 504.309 197.442C499.983 160.079 487.05 125.489 469.074 92.6919C463.409 82.389 456.261 73.1857 445.169 67.9745C434.89 63.1936 424.85 57.7672 414.428 53.2253C399.966 46.9623 385.312 41.1057 370.611 35.3925C362.483 32.2371 354.284 28.6275 345.774 27.241C327.12 23.8612 308.282 21.5943 289.359 20.4521C262.227 19.3525 235.024 20.7629 207.868 20.0457C184.203 19.4242 163.071 26.3087 143.063 38.1654C128.242 46.9384 113.039 55.0899 98.4329 64.1975C90.7365 68.929 83.6203 74.545 77.2295 80.9308C66.329 91.9986 58.1058 105.29 51.0539 119.059C38.2561 143.685 28.4647 169.761 21.8903 196.725C17.8983 213.123 15.0775 229.857 12.3285 246.518C8.12126 271.522 14.7189 294.327 26.2648 316.487C37.261 337.403 47.4682 358.726 58.0819 379.858C58.9317 381.254 59.8909 382.581 60.9505 383.826Z" fill="white"/>
</svg>
